<svg
   xmlns="http://www.w3.org/2000/svg"
   width="882.846"
   height="842.558"
   viewBox="0 0 233.58633 222.92681">
  <g
     transform="matrix(0.26458333,0,0,0.26458333,135.10995,61.938828)">
    <path
       fill="#00D564"
       d="m 256.18923,122.76049 30.82,-356.86 -725.42,112.885 61.445,231.035 h -133.686 l 137.1,421.011 320.776001,-47.617 v 125.244 l 371.815999,-170.527 53.154,-315.171 z" />
  </g>
  <g>
    <path
       fill="#FFFFFF"
       d="m 170.05409,56.477768 c -0.75811,-0.006 -1.51929,0.0177 -2.27531,0.0677 -6.56272,0.3773 -14.96806,0.96514 -21.5284,1.36943 -0.70803,0.0426 -1.28932,0.58271 -1.28932,1.21956 -0.0955,14.50816 -0.1856,29.0136 -0.28112,43.527062 -0.005,0.62653 0.56851,1.14495 1.28156,1.16427 6.97125,0.18997 13.38948,0.37151 20.3631,0.54984 h 0.004 c 9.01753,0.0968 18.48527,-1.77506 19.0536,-13.087062 0.30215,-5.91158 -2.07026,-9.03906 -6.23269,-10.84378 -0.13441,-0.0595 -0.20619,-0.19921 -0.20619,-0.34262 -0.008,-0.13679 0.0568,-0.26842 0.17053,-0.34726 3.42635,-2.53868 5.41565,-6.55271 5.39501,-10.59264 -0.0513,-9.73285 -7.12655,-12.6249 -14.45493,-12.68449 z m -30.45136,1.94871 c -9.78747,0.62654 -19.5725,1.26099 -29.35997,1.93012 -0.62918,0.0439 -1.12024,0.56213 -1.13585,1.19527 -0.11747,13.36093 -0.22574,26.71392 -0.33951,40.073532 -10e-4,0.62389 0.49329,1.13726 1.11983,1.15393 9.8044,0.27887 19.60496,0.55798 29.40751,0.82786 0.69506,0.0206 1.26098,-0.46547 1.26866,-1.09968 l 0.0568,-8.673882 c 0.0156,-0.70803 -0.54267,-1.29809 -1.2454,-1.32137 -7.67636,-0.0892 -11.39467,-0.14204 -18.59319,-0.22221 -0.17304,-0.0103 -0.30739,-0.15792 -0.29972,-0.33228 l 0.0362,-4.94543 c 0,-0.1823 0.14199,-0.33332 0.31264,-0.33332 l 16.15923,-0.0465 c 0.68739,0 1.25878,-0.60551 1.26142,-1.34978 l 0.0569,-9.01289 c 0.008,-0.74401 -0.55078,-1.32931 -1.23817,-1.31 -6.57067,0.23521 -9.93741,0.34656 -16.15406,0.57516 -0.1704,0.005 -0.30748,-0.13956 -0.30748,-0.32556 l 0.0367,-4.44004 c 0.003,-0.17568 0.13895,-0.32926 0.30696,-0.33693 7.19349,-0.36169 10.90951,-0.54644 18.5782,-0.91209 0.69004,-0.0323 1.25562,-0.64856 1.26091,-1.36426 l 0.0646,-8.67027 c 0,-0.63685 -0.56339,-1.09932 -1.25316,-1.05937 z m -34.4656,2.35748 c -0.042,-0.002 -0.0841,-8e-5 -0.12661,0.004 -3.6367,0.24924 -6.109689,0.37022 -9.615947,0.61443 -0.507736,0.0476 -0.927423,0.41629 -1.044898,0.91106 -1.914525,7.90628 -3.790715,14.96257 -5.665287,22.87044 -0.04895,0.20822 -0.211728,1.59318 -0.261999,1.59318 -0.05159,0 -0.212849,-1.3785 -0.259416,-1.58647 -1.777471,-7.64434 -3.570676,-14.43844 -5.385718,-22.07617 -0.114829,-0.47678 -0.51308,-0.79124 -0.967899,-0.75499 -3.635639,0.25717 -5.760677,0.38538 -9.242329,0.63355 -0.43815,0.031 -0.823037,0.39665 -0.940512,0.89142 -1.767417,7.44141 -3.547711,14.01559 -5.361429,21.439 -0.04392,0.18997 -0.189079,1.56838 -0.235646,1.56838 -0.05054,-0.0103 -0.191267,-1.37206 -0.232542,-1.56838 -1.555486,-7.16624 -3.123949,-13.48266 -4.59662,-20.66954 -0.100806,-0.48974 -0.459764,-0.80587 -0.874366,-0.77359 -3.015456,0.21563 -6.394889,0.37181 -9.286253,0.55914 -0.540017,0.036 -1.080151,0.46101 -0.843878,1.48363 2.671763,11.58584 5.860169,23.11527 8.503357,34.706412 0.107156,0.47281 0.461298,0.81915 0.865581,0.82682 3.653631,0.0955 7.092305,0.11069 10.940934,0.21652 0.422539,0.008 0.807987,-0.31399 0.928108,-0.78548 1.662906,-6.475152 3.538439,-12.085892 5.229656,-18.554422 0.05053,-0.19262 0.202803,-1.13137 0.248047,-1.13533 0.04392,0 0.197863,0.9314 0.24443,1.12137 1.620044,6.56802 3.395152,12.28326 5.015195,18.852602 0.120121,0.48048 0.516308,0.82449 0.965835,0.83613 4.092573,0.11747 6.880839,0.17024 11.175027,0.293 0.483129,0.0106 0.909378,-0.31259 1.036113,-0.77773 3.649663,-13.106402 7.091536,-26.268112 10.719246,-39.378472 0.10212,-0.35137 0.0359,-0.70787 -0.17467,-0.97669 -0.18313,-0.23521 -0.46125,-0.37267 -0.75551,-0.38344 z m 60.67278,6.50658 c 3.5832,0.041 4.02611,1.70654 4.02611,3.37912 0,2.41195 -1.62253,3.76586 -4.85759,3.86798 -2.87073,0.0855 -4.333,0.1346 -7.14684,0.22376 v 0.001 c -0.18865,0.006 -0.34417,-0.15863 -0.34417,-0.3576 l 0.0367,-6.40271 c 0.005,-0.19394 0.15463,-0.35416 0.3483,-0.36845 2.82416,-0.13044 4.29681,-0.19345 7.17786,-0.32918 0.2676,-0.0122 0.52078,-0.0167 0.75964,-0.0139 z m -0.0925,19.04483 c 3.40545,-0.0103 5.0745,1.10747 5.06947,3.81786 0,1.60708 -0.57888,3.71396 -5.10564,3.65972 l -7.96335,-0.1328 c -0.19394,-0.007 -0.34364,-0.16528 -0.34364,-0.35657 l 0.0414,-6.56033 c 0,-0.20161 0.15512,-0.3669 0.3488,-0.3669 3.12658,-0.0103 4.75154,-0.0546 7.953,-0.061 z M 34.257736,109.51587 c -0.545306,0.0286 -0.965202,0.49388 -0.936895,1.04025 l 0.448554,11.08976 c 0.03757,0.51938 0.466153,0.9148 0.982885,0.90951 l 12.744958,0.27905 c 0.216958,0 0.394001,0.17578 0.395324,0.39274 l -0.13694,34.75757 c 0,0.0283 0.0011,0.057 0.0036,0.0853 0.05186,0.54531 0.532725,0.9456 1.075385,0.89401 l 11.899532,-0.82424 c 0.512763,-0.0413 0.909733,-0.46519 0.911056,-0.97927 l -0.212392,-33.80672 c 0,-0.21961 0.175784,-0.39274 0.392743,-0.39274 l 11.704711,0.12919 c 0.519377,0 0.949574,-0.40305 0.981853,-0.92243 l 0.287322,-10.56163 c 0.03096,-0.54901 -0.405559,-1.01014 -0.961184,-1.02681 l -39.49423,-1.0635 z m 65.051326,1.03146 c -15.060877,0 -23.951509,10.01322 -23.951509,23.69985 0,14.61664 10.262438,23.63676 24.163382,23.19755 12.837585,-0.41328 22.651335,-9.73014 22.651335,-23.81973 0,-12.99925 -10.07854,-23.07767 -22.863208,-23.07767 z m 47.285488,1.26091 c -13.30166,0 -21.27002,8.8119 -21.27002,21.7749 0,12.41795 9.71509,21.56459 21.77902,21.07881 11.45646,-0.46249 20.43081,-9.15429 20.43081,-21.72994 0,-12.54177 -9.15765,-21.12377 -20.93981,-21.12377 z m 25.56227,0.92656 c -0.53235,-0.004 -0.96378,0.42476 -0.96378,0.95446 l -0.41857,37.06906 v 0.0439 c 0.0466,0.54266 0.52129,0.94832 1.06659,0.90175 l 10.09759,-0.46508 c 0.51408,-0.0233 0.91712,-0.4471 0.92241,-0.96119 l 0.0284,-16.39434 c -0.008,-0.3773 0.49617,-0.52443 0.72345,-0.21963 l 11.28871,16.291 c 0.2069,0.28681 0.55549,0.44449 0.9095,0.40824 l 8.56539,-0.26355 c 0.47281,-0.031 0.85259,-0.40317 0.89916,-0.87333 l 1.41904,-34.89968 c 0.0439,-0.55695 -0.42125,-1.02991 -1.00254,-1.02991 l -9.37408,-0.0966 c -0.52176,-0.0116 -0.95342,0.38732 -0.98703,0.90538 l -0.19896,17.88676 c -0.0156,0.372 -0.51663,0.5038 -0.73121,0.18604 l -12.37133,-18.66295 c -0.19129,-0.27517 -0.50115,-0.43702 -0.83717,-0.43305 l -9.01753,-0.34726 z m -72.847758,10.34252 c 5.901528,0.0648 10.009688,4.02328 10.044348,10.72544 0.0402,6.70507 -3.96457,11.07436 -9.886736,11.30164 -5.929841,0.22992 -10.193192,-3.99729 -10.20351,-11.01483 -0.009,-7.02284 4.144367,-11.07178 10.045898,-11.01225 z m 47.458598,0.22789 c 5.64833,0 9.07955,3.72556 9.07955,9.81335 0,5.92217 -3.53203,9.98387 -8.88058,10.21644 -5.34856,0.23257 -9.21137,-3.6948 -9.27593,-9.93738 -0.0696,-6.23755 3.60962,-10.09241 9.07696,-10.09241 z" />
  </g>
</svg>
